<mxfile host="app.diagrams.net" modified="2023-12-19T20:53:07.257Z" agent="Mozilla/5.0 (Macintosh; Intel Mac OS X 10_15_7) AppleWebKit/537.36 (KHTML, like Gecko) Chrome/120.0.0.0 Safari/537.36" etag="R8jr2U5wkEDqa6nQ_XNl" version="22.1.11" type="device">
  <diagram id="C5RBs43oDa-KdzZeNtuy" name="Page-1">
    <mxGraphModel dx="1280" dy="1448" grid="1" gridSize="10" guides="1" tooltips="1" connect="1" arrows="1" fold="1" page="1" pageScale="1" pageWidth="980" pageHeight="690" math="0" shadow="0">
      <root>
        <mxCell id="WIyWlLk6GJQsqaUBKTNV-0" />
        <mxCell id="WIyWlLk6GJQsqaUBKTNV-1" parent="WIyWlLk6GJQsqaUBKTNV-0" />
        <mxCell id="DxCVoNCIZApvcSNaCsu--17" style="edgeStyle=orthogonalEdgeStyle;rounded=0;orthogonalLoop=1;jettySize=auto;html=1;exitX=1;exitY=0.5;exitDx=0;exitDy=0;entryX=0;entryY=0.5;entryDx=0;entryDy=0;" edge="1" parent="WIyWlLk6GJQsqaUBKTNV-1" source="WIyWlLk6GJQsqaUBKTNV-3" target="WIyWlLk6GJQsqaUBKTNV-7">
          <mxGeometry relative="1" as="geometry" />
        </mxCell>
        <mxCell id="WIyWlLk6GJQsqaUBKTNV-3" value="Legacy&lt;br&gt;Subscriber" style="rounded=1;whiteSpace=wrap;html=1;fontSize=12;glass=0;strokeWidth=1;shadow=0;" parent="WIyWlLk6GJQsqaUBKTNV-1" vertex="1">
          <mxGeometry x="20" y="-495" width="110" height="30" as="geometry" />
        </mxCell>
        <mxCell id="DxCVoNCIZApvcSNaCsu--33" style="edgeStyle=orthogonalEdgeStyle;rounded=0;orthogonalLoop=1;jettySize=auto;html=1;entryX=0;entryY=0.5;entryDx=0;entryDy=0;" edge="1" parent="WIyWlLk6GJQsqaUBKTNV-1" source="WIyWlLk6GJQsqaUBKTNV-7" target="DxCVoNCIZApvcSNaCsu--31">
          <mxGeometry relative="1" as="geometry" />
        </mxCell>
        <mxCell id="DxCVoNCIZApvcSNaCsu--34" style="edgeStyle=orthogonalEdgeStyle;rounded=0;orthogonalLoop=1;jettySize=auto;html=1;exitX=1;exitY=0.25;exitDx=0;exitDy=0;entryX=0;entryY=0.5;entryDx=0;entryDy=0;" edge="1" parent="WIyWlLk6GJQsqaUBKTNV-1" source="WIyWlLk6GJQsqaUBKTNV-7" target="DxCVoNCIZApvcSNaCsu--18">
          <mxGeometry relative="1" as="geometry" />
        </mxCell>
        <mxCell id="WIyWlLk6GJQsqaUBKTNV-7" value="Membership-Login" style="rounded=1;whiteSpace=wrap;html=1;fontSize=12;glass=0;strokeWidth=1;shadow=0;fillColor=#ffe6cc;strokeColor=#d79b00;" parent="WIyWlLk6GJQsqaUBKTNV-1" vertex="1">
          <mxGeometry x="170" y="-500" width="120" height="40" as="geometry" />
        </mxCell>
        <mxCell id="DxCVoNCIZApvcSNaCsu--14" value="&lt;h1&gt;Now-Jan. 3&lt;/h1&gt;&lt;p&gt;Lorem ipsum dolor sit amet, consectetur adipisicing elit, sed do eiusmod tempor incididunt ut labore et dolore magna aliqua.&lt;/p&gt;" style="text;html=1;strokeColor=none;fillColor=none;spacing=5;spacingTop=-20;whiteSpace=wrap;overflow=hidden;rounded=0;" vertex="1" parent="WIyWlLk6GJQsqaUBKTNV-1">
          <mxGeometry x="40" y="-645" width="190" height="120" as="geometry" />
        </mxCell>
        <mxCell id="DxCVoNCIZApvcSNaCsu--18" value="My Account" style="rounded=1;whiteSpace=wrap;html=1;fontSize=12;glass=0;strokeWidth=1;shadow=0;fillColor=#fff2cc;strokeColor=#d6b656;gradientColor=#ffd966;" vertex="1" parent="WIyWlLk6GJQsqaUBKTNV-1">
          <mxGeometry x="360" y="-535" width="120" height="40" as="geometry" />
        </mxCell>
        <mxCell id="DxCVoNCIZApvcSNaCsu--44" value="" style="edgeStyle=orthogonalEdgeStyle;rounded=0;orthogonalLoop=1;jettySize=auto;html=1;" edge="1" parent="WIyWlLk6GJQsqaUBKTNV-1" source="DxCVoNCIZApvcSNaCsu--20" target="DxCVoNCIZApvcSNaCsu--21">
          <mxGeometry relative="1" as="geometry" />
        </mxCell>
        <mxCell id="DxCVoNCIZApvcSNaCsu--20" value="NEW&lt;br&gt;Subscriber" style="rounded=1;whiteSpace=wrap;html=1;fontSize=12;glass=0;strokeWidth=1;shadow=0;" vertex="1" parent="WIyWlLk6GJQsqaUBKTNV-1">
          <mxGeometry x="10" y="-420" width="90" height="30" as="geometry" />
        </mxCell>
        <mxCell id="DxCVoNCIZApvcSNaCsu--24" style="edgeStyle=orthogonalEdgeStyle;rounded=0;orthogonalLoop=1;jettySize=auto;html=1;exitX=1;exitY=0.5;exitDx=0;exitDy=0;entryX=0;entryY=0.5;entryDx=0;entryDy=0;" edge="1" parent="WIyWlLk6GJQsqaUBKTNV-1" source="DxCVoNCIZApvcSNaCsu--21" target="DxCVoNCIZApvcSNaCsu--23">
          <mxGeometry relative="1" as="geometry" />
        </mxCell>
        <mxCell id="DxCVoNCIZApvcSNaCsu--27" style="edgeStyle=orthogonalEdgeStyle;rounded=0;orthogonalLoop=1;jettySize=auto;html=1;exitX=1;exitY=0.25;exitDx=0;exitDy=0;entryX=0;entryY=0.25;entryDx=0;entryDy=0;" edge="1" parent="WIyWlLk6GJQsqaUBKTNV-1" source="DxCVoNCIZApvcSNaCsu--21" target="DxCVoNCIZApvcSNaCsu--25">
          <mxGeometry relative="1" as="geometry" />
        </mxCell>
        <mxCell id="DxCVoNCIZApvcSNaCsu--21" value="Paid-Membership-Join&lt;br&gt;(subscribe option)" style="rounded=1;whiteSpace=wrap;html=1;fontSize=12;glass=0;strokeWidth=1;shadow=0;fillColor=#ffe6cc;strokeColor=#d79b00;" vertex="1" parent="WIyWlLk6GJQsqaUBKTNV-1">
          <mxGeometry x="140" y="-432.5" width="100" height="65" as="geometry" />
        </mxCell>
        <mxCell id="DxCVoNCIZApvcSNaCsu--42" style="edgeStyle=orthogonalEdgeStyle;rounded=0;orthogonalLoop=1;jettySize=auto;html=1;exitX=1;exitY=0.25;exitDx=0;exitDy=0;entryX=0;entryY=0.75;entryDx=0;entryDy=0;" edge="1" parent="WIyWlLk6GJQsqaUBKTNV-1" source="DxCVoNCIZApvcSNaCsu--23" target="DxCVoNCIZApvcSNaCsu--25">
          <mxGeometry relative="1" as="geometry" />
        </mxCell>
        <mxCell id="DxCVoNCIZApvcSNaCsu--23" value="Paid-Membership-Join-Info&lt;br&gt;(subscribe option)" style="rounded=1;whiteSpace=wrap;html=1;fontSize=12;glass=0;strokeWidth=1;shadow=0;fillColor=#ffe6cc;strokeColor=#d79b00;" vertex="1" parent="WIyWlLk6GJQsqaUBKTNV-1">
          <mxGeometry x="280" y="-400" width="110" height="65" as="geometry" />
        </mxCell>
        <mxCell id="DxCVoNCIZApvcSNaCsu--47" value="" style="edgeStyle=orthogonalEdgeStyle;rounded=0;orthogonalLoop=1;jettySize=auto;html=1;" edge="1" parent="WIyWlLk6GJQsqaUBKTNV-1" source="DxCVoNCIZApvcSNaCsu--25" target="DxCVoNCIZApvcSNaCsu--36">
          <mxGeometry relative="1" as="geometry" />
        </mxCell>
        <mxCell id="DxCVoNCIZApvcSNaCsu--25" value="Registration and Payment&lt;br&gt;(to be created)" style="rounded=1;whiteSpace=wrap;html=1;fontSize=12;glass=0;strokeWidth=1;shadow=0;fillColor=#ffe6cc;strokeColor=#d79b00;" vertex="1" parent="WIyWlLk6GJQsqaUBKTNV-1">
          <mxGeometry x="440" y="-430" width="90" height="80" as="geometry" />
        </mxCell>
        <mxCell id="DxCVoNCIZApvcSNaCsu--31" value="Members-Only Galleries" style="rounded=1;whiteSpace=wrap;html=1;fontSize=12;glass=0;strokeWidth=1;shadow=0;fillColor=#fff2cc;strokeColor=#d6b656;gradientColor=#ffd966;" vertex="1" parent="WIyWlLk6GJQsqaUBKTNV-1">
          <mxGeometry x="360" y="-485" width="120" height="40" as="geometry" />
        </mxCell>
        <mxCell id="DxCVoNCIZApvcSNaCsu--35" value="Members-Only Galleries" style="rounded=1;whiteSpace=wrap;html=1;fontSize=12;glass=0;strokeWidth=1;shadow=0;fillColor=#fff2cc;strokeColor=#d6b656;gradientColor=#ffd966;" vertex="1" parent="WIyWlLk6GJQsqaUBKTNV-1">
          <mxGeometry x="860" y="-375" width="110" height="40" as="geometry" />
        </mxCell>
        <mxCell id="DxCVoNCIZApvcSNaCsu--36" value="New Subscriber&lt;br&gt;Welcome Page (&quot;Registration&lt;br&gt;Successful!&quot;)&lt;br&gt;(to be created)" style="rounded=1;whiteSpace=wrap;html=1;fontSize=12;glass=0;strokeWidth=1;shadow=0;fillColor=#ffe6cc;strokeColor=#d79b00;" vertex="1" parent="WIyWlLk6GJQsqaUBKTNV-1">
          <mxGeometry x="570" y="-432.5" width="130" height="95" as="geometry" />
        </mxCell>
        <mxCell id="DxCVoNCIZApvcSNaCsu--39" value="My Account" style="rounded=1;whiteSpace=wrap;html=1;fontSize=12;glass=0;strokeWidth=1;shadow=0;fillColor=#fff2cc;strokeColor=#d6b656;gradientColor=#ffd966;" vertex="1" parent="WIyWlLk6GJQsqaUBKTNV-1">
          <mxGeometry x="860" y="-432.5" width="100" height="40" as="geometry" />
        </mxCell>
        <mxCell id="DxCVoNCIZApvcSNaCsu--43" value="&lt;h1&gt;Jan. 3 onward&lt;/h1&gt;&lt;p&gt;Lorem ipsum dolor sit amet, consectetur adipisicing elit, sed do eiusmod tempor incididunt ut labore et dolore magna aliqua.&lt;/p&gt;" style="text;html=1;strokeColor=none;fillColor=none;spacing=5;spacingTop=-20;whiteSpace=wrap;overflow=hidden;rounded=0;" vertex="1" parent="WIyWlLk6GJQsqaUBKTNV-1">
          <mxGeometry x="30" y="-345" width="190" height="120" as="geometry" />
        </mxCell>
        <mxCell id="DxCVoNCIZApvcSNaCsu--49" value="" style="edgeStyle=orthogonalEdgeStyle;rounded=0;orthogonalLoop=1;jettySize=auto;html=1;exitX=1;exitY=0.5;exitDx=0;exitDy=0;" edge="1" parent="WIyWlLk6GJQsqaUBKTNV-1" source="DxCVoNCIZApvcSNaCsu--36" target="DxCVoNCIZApvcSNaCsu--48">
          <mxGeometry relative="1" as="geometry">
            <mxPoint x="700" y="-385" as="sourcePoint" />
            <mxPoint x="860" y="-380" as="targetPoint" />
            <Array as="points" />
          </mxGeometry>
        </mxCell>
        <mxCell id="DxCVoNCIZApvcSNaCsu--54" style="edgeStyle=orthogonalEdgeStyle;rounded=0;orthogonalLoop=1;jettySize=auto;html=1;entryX=0;entryY=0.5;entryDx=0;entryDy=0;" edge="1" parent="WIyWlLk6GJQsqaUBKTNV-1" source="DxCVoNCIZApvcSNaCsu--48" target="DxCVoNCIZApvcSNaCsu--35">
          <mxGeometry relative="1" as="geometry" />
        </mxCell>
        <mxCell id="DxCVoNCIZApvcSNaCsu--56" style="edgeStyle=orthogonalEdgeStyle;rounded=0;orthogonalLoop=1;jettySize=auto;html=1;entryX=0;entryY=0.5;entryDx=0;entryDy=0;" edge="1" parent="WIyWlLk6GJQsqaUBKTNV-1" source="DxCVoNCIZApvcSNaCsu--48" target="DxCVoNCIZApvcSNaCsu--39">
          <mxGeometry relative="1" as="geometry" />
        </mxCell>
        <mxCell id="DxCVoNCIZApvcSNaCsu--48" value="Membership-Login" style="rounded=1;whiteSpace=wrap;html=1;fontSize=12;glass=0;strokeWidth=1;shadow=0;fillColor=#ffe6cc;strokeColor=#d79b00;" vertex="1" parent="WIyWlLk6GJQsqaUBKTNV-1">
          <mxGeometry x="740" y="-410" width="80" height="50" as="geometry" />
        </mxCell>
      </root>
    </mxGraphModel>
  </diagram>
</mxfile>
